<?xml version="1.0" encoding="UTF-8" standalone="no"?>
<!DOCTYPE svg PUBLIC "-//W3C//DTD SVG 1.1//EN" "http://www.w3.org/Graphics/SVG/1.1/DTD/svg11.dtd">
<svg viewBox="0 0 3960 3960" xmlns="http://www.w3.org/2000/svg" xmlns:xlink="http://www.w3.org/1999/xlink" xml:space="preserve"><g><path d="M0 978.831C-2.5208e-13 438.238 438.238-2.5208e-13 978.831-2.5208e-13L2981.17 0C3521.76-2.5208e-13 3960 438.238 3960 978.831L3960 2981.17C3960 3521.76 3521.76 3960 2981.17 3960L978.831 3960C438.238 3960-1.2604e-13 3521.76-1.2604e-13 2981.17Z" fill="#05A6F0" fill-rule="evenodd"/><path d="M491.25 3468.75 491.25 3220.62 871.708 3220.62 871.708 491.25 2484.52 491.25 2484.52 677.344 3092.43 677.344 3092.43 3220.62 3468.75 3220.62 3468.75 3468.75 2844.3 3468.75 2844.3 925.469 2484.52 925.469 2484.52 3468.75 491.25 3468.75ZM1119.83 739.375 1119.83 3220.62 1119.83 739.375ZM1860.07 2145.42C1906.94 2145.42 1946.23 2129.57 1977.93 2097.86 2009.64 2066.15 2025.49 2026.87 2025.49 1980 2025.49 1933.13 2009.64 1893.85 1977.93 1862.14 1946.23 1830.43 1906.94 1814.58 1860.07 1814.58 1813.21 1814.58 1773.92 1830.43 1742.21 1862.14 1710.51 1893.85 1694.66 1933.13 1694.66 1980 1694.66 2026.87 1710.51 2066.15 1742.21 2097.86 1773.92 2129.57 1813.21 2145.42 1860.07 2145.42ZM1119.83 3220.62 2236.4 3220.62 2236.4 739.375 1119.83 739.375 1119.83 3220.62Z" fill="#FFFFFF"/><path d="M1727 2763.5C1727 2146.32 2227.32 1646 2844.5 1646 3461.68 1646 3962 2146.32 3962 2763.5 3962 3380.68 3461.68 3881 2844.5 3881 2227.32 3881 1727 3380.68 1727 2763.5Z" fill="#05A6F0" fill-rule="evenodd"/><path d="M3198.01 2433.89 2732.04 2900.17 2496.99 2664.97 2381.52 2784.63 2732.04 3135.37 3313.48 2549.43ZM2847.94 1980C3064.83 1980 3249.56 2056.48 3402.14 2209.45 3554.71 2362.41 3631 2547.41 3631 2764.44 3631 2981.47 3554.57 3166.32 3401.7 3318.99 3248.83 3471.66 3063.95 3548 2847.06 3548 2630.17 3548 2445.44 3471.52 2292.86 3318.55 2140.29 3165.59 2064 2980.59 2064 2763.56 2064 2546.53 2140.43 2361.68 2293.3 2209.01 2446.17 2056.34 2631.05 1980 2847.94 1980Z" fill="#FFFFFF" fill-rule="evenodd"/></g></svg>
